<svg width="28" height="28" viewBox="0 0 28 28" fill="none" xmlns="http://www.w3.org/2000/svg">
<g clip-path="url(#clip0_896_3760)">
<path d="M11.6667 14C14.245 14 16.3333 11.9117 16.3333 9.33334C16.3333 6.755 14.245 4.66667 11.6667 4.66667C9.08833 4.66667 7 6.755 7 9.33334C7 11.9117 9.08833 14 11.6667 14ZM11.6667 7.00001C12.95 7.00001 14 8.05 14 9.33334C14 10.6167 12.95 11.6667 11.6667 11.6667C10.3833 11.6667 9.33333 10.6167 9.33333 9.33334C9.33333 8.05 10.3833 7.00001 11.6667 7.00001Z" fill="black"/>
<path d="M4.66659 21C4.92325 20.16 8.52825 18.6667 11.6666 18.6667C11.6666 17.85 11.8183 17.0683 12.0749 16.345C8.88992 16.2283 2.33325 17.815 2.33325 21V23.3333H13.4633C12.8566 22.6567 12.3783 21.875 12.0749 21H4.66659Z" fill="black"/>
<path d="M22.6683 21.0233C23.0883 20.335 23.3333 19.53 23.3333 18.6667C23.3333 16.0883 21.245 14 18.6667 14C16.0883 14 14 16.0883 14 18.6667C14 21.245 16.0883 23.3333 18.6667 23.3333C19.53 23.3333 20.335 23.0767 21.0233 22.6683C22.1083 23.7533 22.9133 24.5583 24.0217 25.6667L25.6667 24.0217C23.9167 22.2717 24.745 23.0883 22.6683 21.0233ZM18.6667 21C17.3833 21 16.3333 19.95 16.3333 18.6667C16.3333 17.3833 17.3833 16.3333 18.6667 16.3333C19.95 16.3333 21 17.3833 21 18.6667C21 19.95 19.95 21 18.6667 21Z" fill="black"/>
</g>
<defs>
<clipPath id="clip0_896_3760">
<rect width="28" height="28" fill="white"/>
</clipPath>
</defs>
</svg>
