<svg width="28" height="28" viewBox="0 0 28 28" fill="none" xmlns="http://www.w3.org/2000/svg">
<path d="M4.6665 24.5002V18.6669C4.6665 18.0252 4.89498 17.4759 5.35192 17.0189C5.80887 16.562 6.35817 16.3335 6.99984 16.3335H20.9998C21.6415 16.3335 22.1908 16.562 22.6478 17.0189C23.1047 17.4759 23.3332 18.0252 23.3332 18.6669V24.5002H4.6665ZM10.4998 15.1669C8.88595 15.1669 7.51025 14.5981 6.37275 13.4606C5.23525 12.3231 4.6665 10.9474 4.6665 9.33353C4.6665 7.71964 5.23525 6.34395 6.37275 5.20645C7.51025 4.06895 8.88595 3.5002 10.4998 3.5002H17.4998C19.1137 3.5002 20.4894 4.06895 21.6269 5.20645C22.7644 6.34395 23.3332 7.71964 23.3332 9.33353C23.3332 10.9474 22.7644 12.3231 21.6269 13.4606C20.4894 14.5981 19.1137 15.1669 17.4998 15.1669H10.4998ZM6.99984 22.1669H20.9998V18.6669H6.99984V22.1669ZM10.4998 12.8335H17.4998C18.4721 12.8335 19.2984 12.4933 19.979 11.8127C20.6596 11.1321 20.9998 10.3058 20.9998 9.33353C20.9998 8.36131 20.6596 7.53492 19.979 6.85437C19.2984 6.17381 18.4721 5.83353 17.4998 5.83353H10.4998C9.52762 5.83353 8.70123 6.17381 8.02067 6.85437C7.34012 7.53492 6.99984 8.36131 6.99984 9.33353C6.99984 10.3058 7.34012 11.1321 8.02067 11.8127C8.70123 12.4933 9.52762 12.8335 10.4998 12.8335ZM10.4998 10.5002C10.8304 10.5002 11.1075 10.3884 11.3311 10.1648C11.5547 9.94117 11.6665 9.66409 11.6665 9.33353C11.6665 9.00298 11.5547 8.72589 11.3311 8.50228C11.1075 8.27867 10.8304 8.16687 10.4998 8.16687C10.1693 8.16687 9.8922 8.27867 9.66859 8.50228C9.44498 8.72589 9.33317 9.00298 9.33317 9.33353C9.33317 9.66409 9.44498 9.94117 9.66859 10.1648C9.8922 10.3884 10.1693 10.5002 10.4998 10.5002ZM17.4998 10.5002C17.8304 10.5002 18.1075 10.3884 18.3311 10.1648C18.5547 9.94117 18.6665 9.66409 18.6665 9.33353C18.6665 9.00298 18.5547 8.72589 18.3311 8.50228C18.1075 8.27867 17.8304 8.16687 17.4998 8.16687C17.1693 8.16687 16.8922 8.27867 16.6686 8.50228C16.445 8.72589 16.3332 9.00298 16.3332 9.33353C16.3332 9.66409 16.445 9.94117 16.6686 10.1648C16.8922 10.3884 17.1693 10.5002 17.4998 10.5002Z" fill="black"/>
</svg>
