<svg width="70" height="28" viewBox="0 0 70 28" fill="none" xmlns="http://www.w3.org/2000/svg">
<rect width="70" height="28" rx="2" fill="black"/>
<rect x="3.5" y="3.5" width="63" height="18.6667" fill="white"/>
<circle cx="34.4166" cy="20.4167" r="4.08333" fill="white"/>
<path d="M18.8428 16.8333V9.76303H21.6162C23.2275 9.76303 24.1455 10.7494 24.1455 12.1458C24.1455 13.5619 23.208 14.5287 21.5771 14.5287H20.3076V16.8333H18.8428ZM20.3076 13.347H21.3428C22.2119 13.347 22.6318 12.8587 22.6318 12.1458C22.6318 11.4427 22.2119 10.9642 21.3428 10.9642H20.3076V13.347ZM25.0439 16.8333V11.5306H26.4404V12.4486H26.499C26.6943 11.7943 27.1826 11.4525 27.7783 11.4525C27.9248 11.4525 28.1104 11.472 28.2373 11.5013V12.7904C28.1006 12.7513 27.8271 12.7122 27.6221 12.7122C26.9678 12.7122 26.4893 13.1712 26.4893 13.8158V16.8333H25.0439ZM31.1572 16.9408C29.5557 16.9408 28.5596 15.8372 28.5596 14.1966C28.5596 12.556 29.5557 11.4622 31.1572 11.4622C32.7588 11.4622 33.7646 12.556 33.7646 14.1966C33.7646 15.8372 32.7588 16.9408 31.1572 16.9408ZM31.167 15.8177C31.9092 15.8177 32.29 15.1244 32.29 14.1966C32.29 13.2591 31.9092 12.5658 31.167 12.5658C30.415 12.5658 30.0244 13.2591 30.0244 14.1966C30.0244 15.1244 30.415 15.8177 31.167 15.8177ZM34.6729 11.5306H36.1182V17.097C36.1182 18.3177 35.3662 18.8255 34.126 18.8255L33.833 18.8158V17.683C33.9111 17.683 33.96 17.6927 34.0283 17.6927C34.4971 17.6927 34.6729 17.4779 34.6729 17.0775V11.5306ZM35.3857 10.8372C34.9463 10.8372 34.5947 10.5052 34.5947 10.1048C34.5947 9.69467 34.9463 9.36264 35.3857 9.36264C35.8154 9.36264 36.167 9.69467 36.167 10.1048C36.167 10.5052 35.8154 10.8372 35.3857 10.8372ZM39.6436 16.9408C38.0225 16.9408 37.0264 15.8861 37.0264 14.2064C37.0264 12.5658 38.0322 11.4622 39.585 11.4622C40.9814 11.4622 42.0752 12.3412 42.0752 14.1478V14.558H38.4521C38.4521 15.3587 38.9307 15.8568 39.6729 15.8568C40.1611 15.8568 40.5127 15.6419 40.6592 15.3197H42.0361C41.8311 16.2962 40.9521 16.9408 39.6436 16.9408ZM38.4521 13.6497H40.708C40.708 13.0052 40.2588 12.5462 39.6143 12.5462C38.9502 12.5462 38.4766 13.0394 38.4521 13.6497ZM45.3662 16.9408C43.7451 16.9408 42.7686 15.8177 42.7686 14.1966C42.7686 12.5755 43.7549 11.4622 45.3662 11.4622C46.7334 11.4622 47.6611 12.263 47.7197 13.474H46.3623C46.2744 12.9466 45.9326 12.5853 45.3857 12.5853C44.6924 12.5853 44.2334 13.1712 44.2334 14.1771C44.2334 15.2025 44.6826 15.7884 45.3857 15.7884C45.8936 15.7884 46.2744 15.4759 46.3623 14.9095H47.7197C47.6514 16.1107 46.7725 16.9408 45.3662 16.9408ZM51.4111 11.5306V12.6146H50.415V15.2025C50.415 15.6224 50.6201 15.7298 50.9131 15.7396C51.0596 15.7396 51.3135 15.7298 51.4893 15.7103V16.8529C51.333 16.8822 51.0791 16.9017 50.7178 16.9017C49.6729 16.9017 48.96 16.433 48.9697 15.4076V12.6146H48.2373V11.5306H48.9697V10.2611H50.415V11.5306H51.4111Z" fill="black"/>
</svg>
