<svg width="28" height="28" viewBox="0 0 28 28" fill="none" xmlns="http://www.w3.org/2000/svg">
<path d="M13.776 3.74149C14.8444 1.60474 17.6925 1.14274 19.3812 2.83149L25.1685 8.61874C26.8572 10.3075 26.3952 13.1565 24.2585 14.224L18.7022 17.003C18.548 17.08 18.4104 17.1866 18.2973 17.3168C18.1843 17.4469 18.098 17.5981 18.0434 17.7616L16.5909 22.1217C16.4966 22.4048 16.3315 22.6591 16.1113 22.8604C15.8911 23.0617 15.6231 23.2034 15.3327 23.2719C15.0423 23.3405 14.7392 23.3337 14.4522 23.2521C14.1652 23.1706 13.9038 23.017 13.6929 22.806L10.0625 19.1747L4.73725 24.5009H3.5V23.2627L8.82525 17.9384L5.19487 14.3071C4.98428 14.0961 4.83106 13.8349 4.74976 13.5481C4.66845 13.2613 4.66175 12.9585 4.73029 12.6684C4.79882 12.3783 4.94033 12.1105 5.14139 11.8904C5.34244 11.6704 5.59638 11.5053 5.87912 11.4109L10.2384 9.95662C10.402 9.9022 10.5533 9.81608 10.6836 9.70318C10.8139 9.59028 10.9207 9.45281 10.9979 9.29862L13.776 3.74149Z" fill="#565656"/>
</svg>
