<svg width="28" height="28" viewBox="0 0 28 28" fill="none" xmlns="http://www.w3.org/2000/svg">
<g clip-path="url(#clip0_983_2716)">
<path d="M19.8333 22.4233H5.83333V8.16666H14V5.83333H5.83333C4.55 5.83333 3.5 6.88333 3.5 8.16666V22.1667C3.5 23.45 4.55 24.5 5.83333 24.5H19.8333C21.1167 24.5 22.1667 23.45 22.1667 22.1667V14H19.8333V22.4233Z" fill="white"/>
<path d="M22.1666 2.33333H19.8333V5.83333H16.3333C16.3449 5.84499 16.3333 8.16666 16.3333 8.16666H19.8333V11.655C19.8449 11.6667 22.1666 11.655 22.1666 11.655V8.16666H25.6666V5.83333H22.1666V2.33333Z" fill="white"/>
<path d="M17.5001 10.5H8.16675V12.8333H17.5001V10.5Z" fill="white"/>
<path d="M8.16675 14V16.3333H17.5001V14H14.0001H8.16675Z" fill="white"/>
<path d="M17.5001 17.5H8.16675V19.8333H17.5001V17.5Z" fill="white"/>
</g>
<defs>
<clipPath id="clip0_983_2716">
<rect width="28" height="28" fill="white"/>
</clipPath>
</defs>
</svg>
