<svg width="70" height="28" viewBox="0 0 70 28" fill="none" xmlns="http://www.w3.org/2000/svg">
<rect width="70" height="28" rx="2" fill="black"/>
<rect x="3.5" y="3.5" width="63" height="18.6667" fill="white"/>
<circle cx="34.4166" cy="20.4167" r="4.08333" fill="white"/>
<path d="M17.3779 10.974V9.76303H23.1689V10.974H21.001V16.8333H19.5459V10.974H17.3779ZM23.4912 16.8333V11.5306H24.8877V12.4486H24.9463C25.1416 11.7943 25.6299 11.4525 26.2256 11.4525C26.3721 11.4525 26.5576 11.472 26.6846 11.5013V12.7904C26.5479 12.7513 26.2744 12.7122 26.0693 12.7122C25.415 12.7122 24.9365 13.1712 24.9365 13.8158V16.8333H23.4912ZM29.6045 16.9408C28.0029 16.9408 27.0068 15.8372 27.0068 14.1966C27.0068 12.556 28.0029 11.4622 29.6045 11.4622C31.2061 11.4622 32.2119 12.556 32.2119 14.1966C32.2119 15.8372 31.2061 16.9408 29.6045 16.9408ZM29.6143 15.8177C30.3564 15.8177 30.7373 15.1244 30.7373 14.1966C30.7373 13.2591 30.3564 12.5658 29.6143 12.5658C28.8623 12.5658 28.4717 13.2591 28.4717 14.1966C28.4717 15.1244 28.8623 15.8177 29.6143 15.8177ZM36.5186 14.5775V11.5306H37.9639V16.8333H36.5771V15.8763H36.5186C36.2744 16.4915 35.708 16.9017 34.9072 16.9017C33.8428 16.9017 33.1201 16.1497 33.1201 14.9095V11.5306H34.5654V14.6556C34.5654 15.2806 34.9268 15.681 35.4932 15.681C36.0205 15.681 36.5186 15.3001 36.5186 14.5775ZM39.1162 16.8333V9.76303H40.5615V12.4193H40.6006C40.8057 11.9896 41.2256 11.4622 42.1143 11.4622C43.2861 11.4622 44.2725 12.3705 44.2725 14.1869C44.2725 15.9544 43.3252 16.9212 42.1143 16.9212C41.2451 16.9212 40.8057 16.4232 40.6006 15.9837H40.542V16.8333H39.1162ZM40.5322 14.1771C40.5322 15.1341 40.9424 15.7689 41.6553 15.7689C42.3975 15.7689 42.7881 15.1146 42.7881 14.1771C42.7881 13.2494 42.3975 12.6146 41.6553 12.6146C40.9326 12.6146 40.5322 13.2201 40.5322 14.1771ZM46.6455 9.76303V16.8333H45.2002V9.76303H46.6455ZM50.1709 16.9408C48.5498 16.9408 47.5537 15.8861 47.5537 14.2064C47.5537 12.5658 48.5596 11.4622 50.1123 11.4622C51.5088 11.4622 52.6025 12.3412 52.6025 14.1478V14.558H48.9795C48.9795 15.3587 49.458 15.8568 50.2002 15.8568C50.6885 15.8568 51.04 15.6419 51.1865 15.3197H52.5635C52.3584 16.2962 51.4795 16.9408 50.1709 16.9408ZM48.9795 13.6497H51.2354C51.2354 13.0052 50.7861 12.5462 50.1416 12.5462C49.4775 12.5462 49.0039 13.0394 48.9795 13.6497Z" fill="black"/>
</svg>
