<svg width="28" height="28" viewBox="0 0 28 28" fill="none" xmlns="http://www.w3.org/2000/svg">
<g clip-path="url(#clip0_896_3772)">
<path d="M14.0001 7.00001C15.2834 7.00001 16.3334 8.05 16.3334 9.33334C16.3334 10.6167 15.2834 11.6667 14.0001 11.6667C12.7167 11.6667 11.6667 10.6167 11.6667 9.33334C11.6667 8.05 12.7167 7.00001 14.0001 7.00001ZM14.0001 18.6667C17.1501 18.6667 20.7667 20.1717 21.0001 21H7.00008C7.26841 20.16 10.8617 18.6667 14.0001 18.6667ZM14.0001 4.66667C11.4217 4.66667 9.33341 6.755 9.33341 9.33334C9.33341 11.9117 11.4217 14 14.0001 14C16.5784 14 18.6667 11.9117 18.6667 9.33334C18.6667 6.755 16.5784 4.66667 14.0001 4.66667ZM14.0001 16.3333C10.8851 16.3333 4.66675 17.8967 4.66675 21V23.3333H23.3334V21C23.3334 17.8967 17.1151 16.3333 14.0001 16.3333Z" fill="black"/>
</g>
<defs>
<clipPath id="clip0_896_3772">
<rect width="28" height="28" fill="white"/>
</clipPath>
</defs>
</svg>
